<svg width="588" height="33" viewBox="0 0 588 33" fill="none" xmlns="http://www.w3.org/2000/svg">
<path d="M21.2599 9.875H16.2827C16.1918 9.23106 16.0062 8.65909 15.7259 8.15909C15.4456 7.65151 15.0857 7.2197 14.6463 6.86364C14.2069 6.50757 13.6993 6.23485 13.1236 6.04545C12.5554 5.85606 11.938 5.76136 11.2713 5.76136C10.0668 5.76136 9.01752 6.06061 8.12358 6.65909C7.22964 7.25 6.53646 8.11364 6.04403 9.25C5.55161 10.3788 5.3054 11.75 5.3054 13.3636C5.3054 15.0227 5.55161 16.4167 6.04403 17.5455C6.54403 18.6742 7.241 19.5265 8.13494 20.1023C9.02888 20.678 10.063 20.9659 11.2372 20.9659C11.8963 20.9659 12.5062 20.8788 13.0668 20.7045C13.6349 20.5303 14.1387 20.2765 14.5781 19.9432C15.0175 19.6023 15.3812 19.1894 15.669 18.7045C15.9645 18.2197 16.169 17.6667 16.2827 17.0455L21.2599 17.0682C21.1312 18.1364 20.8092 19.1667 20.294 20.1591C19.7865 21.1439 19.1009 22.0265 18.2372 22.8068C17.3812 23.5795 16.3584 24.1932 15.169 24.6477C13.9872 25.0947 12.6501 25.3182 11.1577 25.3182C9.08191 25.3182 7.22585 24.8485 5.58949 23.9091C3.9607 22.9697 2.67282 21.6098 1.72585 19.8295C0.786458 18.0492 0.316761 15.8939 0.316761 13.3636C0.316761 10.8258 0.794034 8.66667 1.74858 6.88636C2.70313 5.10606 3.99858 3.75 5.63494 2.81818C7.27131 1.87879 9.11222 1.40909 11.1577 1.40909C12.5062 1.40909 13.7562 1.59848 14.9077 1.97727C16.0668 2.35606 17.0933 2.90909 17.9872 3.63636C18.8812 4.35606 19.6084 5.23864 20.169 6.28409C20.7372 7.32954 21.1009 8.52651 21.2599 9.875ZM32.5838 25.3409C30.8187 25.3409 29.2921 24.9659 28.0043 24.2159C26.724 23.4583 25.7353 22.4053 25.0384 21.0568C24.3414 19.7008 23.9929 18.1288 23.9929 16.3409C23.9929 14.5379 24.3414 12.9621 25.0384 11.6136C25.7353 10.2576 26.724 9.20454 28.0043 8.45454C29.2921 7.69697 30.8187 7.31818 32.5838 7.31818C34.349 7.31818 35.8717 7.69697 37.152 8.45454C38.4399 9.20454 39.4323 10.2576 40.1293 11.6136C40.8262 12.9621 41.1747 14.5379 41.1747 16.3409C41.1747 18.1288 40.8262 19.7008 40.1293 21.0568C39.4323 22.4053 38.4399 23.4583 37.152 24.2159C35.8717 24.9659 34.349 25.3409 32.5838 25.3409ZM32.6065 21.5909C33.4096 21.5909 34.08 21.3636 34.6179 20.9091C35.1558 20.447 35.5611 19.8182 35.8338 19.0227C36.1141 18.2273 36.2543 17.322 36.2543 16.3068C36.2543 15.2917 36.1141 14.3864 35.8338 13.5909C35.5611 12.7955 35.1558 12.1667 34.6179 11.7045C34.08 11.2424 33.4096 11.0114 32.6065 11.0114C31.7959 11.0114 31.1141 11.2424 30.5611 11.7045C30.0156 12.1667 29.6027 12.7955 29.3224 13.5909C29.0497 14.3864 28.9134 15.2917 28.9134 16.3068C28.9134 17.322 29.0497 18.2273 29.3224 19.0227C29.6027 19.8182 30.0156 20.447 30.5611 20.9091C31.1141 21.3636 31.7959 21.5909 32.6065 21.5909ZM49.1634 14.9091V25H44.3224V7.54545H48.9361V10.625H49.1406C49.527 9.60985 50.1747 8.80682 51.0838 8.21591C51.9929 7.61742 53.0952 7.31818 54.3906 7.31818C55.6027 7.31818 56.6596 7.58333 57.5611 8.11364C58.4626 8.64394 59.1634 9.40151 59.6634 10.3864C60.1634 11.3636 60.4134 12.5303 60.4134 13.8864V25H55.5724V14.75C55.58 13.6818 55.3073 12.8485 54.7543 12.25C54.2012 11.6439 53.4399 11.3409 52.4702 11.3409C51.8187 11.3409 51.2429 11.4811 50.7429 11.7614C50.2505 12.0417 49.8641 12.4508 49.5838 12.9886C49.3111 13.5189 49.1709 14.1591 49.1634 14.9091ZM69.0696 14.9091V25H64.2287V1.72727H68.9332V10.625H69.1378C69.5317 9.5947 70.1681 8.78788 71.0469 8.20454C71.9257 7.61364 73.0279 7.31818 74.3537 7.31818C75.5658 7.31818 76.6226 7.58333 77.5241 8.11364C78.4332 8.63636 79.1378 9.39015 79.6378 10.375C80.1454 11.3523 80.3954 12.5227 80.3878 13.8864V25H75.5469V14.75C75.5545 13.6742 75.2817 12.8371 74.7287 12.2386C74.1832 11.6402 73.4181 11.3409 72.4332 11.3409C71.7741 11.3409 71.1908 11.4811 70.6832 11.7614C70.1832 12.0417 69.7893 12.4508 69.5014 12.9886C69.2211 13.5189 69.0772 14.1591 69.0696 14.9091ZM92.152 25.3409C90.3565 25.3409 88.8111 24.9773 87.5156 24.25C86.2277 23.5152 85.2353 22.4773 84.5384 21.1364C83.8414 19.7879 83.4929 18.1932 83.4929 16.3523C83.4929 14.5568 83.8414 12.9811 84.5384 11.625C85.2353 10.2689 86.2164 9.21212 87.4815 8.45454C88.7543 7.69697 90.2467 7.31818 91.9588 7.31818C93.1103 7.31818 94.1823 7.50379 95.1747 7.875C96.1747 8.23864 97.0459 8.78788 97.7884 9.52273C98.5384 10.2576 99.1217 11.1818 99.5384 12.2955C99.955 13.4015 100.163 14.697 100.163 16.1818V17.5114H85.4247V14.5114H95.6065C95.6065 13.8144 95.455 13.197 95.152 12.6591C94.849 12.1212 94.4285 11.7008 93.8906 11.3977C93.3603 11.0871 92.7429 10.9318 92.0384 10.9318C91.3035 10.9318 90.652 11.1023 90.0838 11.4432C89.5232 11.7765 89.0838 12.2273 88.7656 12.7955C88.4474 13.3561 88.2846 13.9811 88.277 14.6705V17.5227C88.277 18.3864 88.4361 19.1326 88.7543 19.7614C89.08 20.3902 89.5384 20.875 90.1293 21.2159C90.7202 21.5568 91.4209 21.7273 92.2315 21.7273C92.7694 21.7273 93.2618 21.6515 93.7088 21.5C94.1558 21.3485 94.5384 21.1212 94.8565 20.8182C95.1747 20.5152 95.4171 20.1439 95.5838 19.7045L100.061 20C99.8338 21.0758 99.3679 22.0152 98.6634 22.8182C97.9664 23.6136 97.0649 24.2348 95.9588 24.6818C94.8603 25.1212 93.5914 25.3409 92.152 25.3409ZM111.209 25.3409C109.421 25.3409 107.883 24.9621 106.595 24.2045C105.315 23.4394 104.33 22.3788 103.641 21.0227C102.959 19.6667 102.618 18.1061 102.618 16.3409C102.618 14.553 102.963 12.9848 103.652 11.6364C104.349 10.2803 105.338 9.22348 106.618 8.46591C107.898 7.70076 109.421 7.31818 111.186 7.31818C112.709 7.31818 114.042 7.5947 115.186 8.14773C116.33 8.70076 117.235 9.47727 117.902 10.4773C118.569 11.4773 118.936 12.6515 119.004 14H114.436C114.307 13.1288 113.966 12.428 113.413 11.8977C112.868 11.3598 112.152 11.0909 111.266 11.0909C110.516 11.0909 109.86 11.2955 109.3 11.7045C108.747 12.1061 108.315 12.6932 108.004 13.4659C107.694 14.2386 107.538 15.1742 107.538 16.2727C107.538 17.3864 107.69 18.3333 107.993 19.1136C108.304 19.8939 108.739 20.4886 109.3 20.8977C109.86 21.3068 110.516 21.5114 111.266 21.5114C111.819 21.5114 112.315 21.3977 112.754 21.1705C113.201 20.9432 113.569 20.6136 113.857 20.1818C114.152 19.7424 114.345 19.2159 114.436 18.6023H119.004C118.929 19.9356 118.565 21.1098 117.913 22.125C117.269 23.1326 116.379 23.9205 115.243 24.4886C114.107 25.0568 112.762 25.3409 111.209 25.3409ZM110.072 24.9091H112.3L112.118 25.8977C112.898 26.0189 113.535 26.3106 114.027 26.7727C114.527 27.2348 114.781 27.8636 114.788 28.6591C114.796 29.7879 114.273 30.6856 113.22 31.3523C112.167 32.0265 110.69 32.3636 108.788 32.3636L108.743 30.2045C109.697 30.2045 110.444 30.0871 110.982 29.8523C111.527 29.625 111.811 29.2689 111.834 28.7841C111.849 28.322 111.671 27.9697 111.3 27.7273C110.929 27.4848 110.349 27.3144 109.561 27.2159L110.072 24.9091ZM127.081 25.3295C125.967 25.3295 124.975 25.1364 124.104 24.75C123.232 24.3561 122.543 23.7765 122.036 23.0114C121.536 22.2386 121.286 21.2765 121.286 20.125C121.286 19.1553 121.464 18.3409 121.82 17.6818C122.176 17.0227 122.661 16.4924 123.274 16.0909C123.888 15.6894 124.585 15.3864 125.365 15.1818C126.153 14.9773 126.979 14.8333 127.842 14.75C128.857 14.6439 129.676 14.5455 130.297 14.4545C130.918 14.3561 131.369 14.2121 131.649 14.0227C131.929 13.8333 132.07 13.553 132.07 13.1818V13.1136C132.07 12.3939 131.842 11.8371 131.388 11.4432C130.941 11.0492 130.304 10.8523 129.479 10.8523C128.607 10.8523 127.914 11.0455 127.399 11.4318C126.884 11.8106 126.543 12.2879 126.376 12.8636L121.899 12.5C122.126 11.4394 122.573 10.5227 123.24 9.75C123.907 8.9697 124.767 8.37121 125.82 7.95454C126.88 7.5303 128.107 7.31818 129.501 7.31818C130.471 7.31818 131.399 7.43182 132.286 7.65909C133.179 7.88636 133.971 8.23864 134.661 8.71591C135.357 9.19318 135.907 9.80682 136.308 10.5568C136.71 11.2992 136.911 12.1894 136.911 13.2273V25H132.32V22.5795H132.183C131.903 23.125 131.528 23.6061 131.058 24.0227C130.589 24.4318 130.024 24.7538 129.365 24.9886C128.706 25.2159 127.945 25.3295 127.081 25.3295ZM128.467 21.9886C129.179 21.9886 129.808 21.8485 130.354 21.5682C130.899 21.2803 131.327 20.8939 131.638 20.4091C131.948 19.9242 132.104 19.375 132.104 18.7614V16.9091C131.952 17.0076 131.744 17.0985 131.479 17.1818C131.221 17.2576 130.929 17.3295 130.604 17.3977C130.278 17.4583 129.952 17.5152 129.626 17.5682C129.301 17.6136 129.005 17.6553 128.74 17.6932C128.172 17.7765 127.676 17.9091 127.251 18.0909C126.827 18.2727 126.498 18.5189 126.263 18.8295C126.028 19.1326 125.911 19.5114 125.911 19.9659C125.911 20.625 126.149 21.1288 126.626 21.4773C127.111 21.8182 127.725 21.9886 128.467 21.9886ZM148.072 25V7.54545H152.686V10.625H152.891C153.254 9.60227 153.86 8.79545 154.709 8.20454C155.557 7.61364 156.572 7.31818 157.754 7.31818C158.951 7.31818 159.97 7.61742 160.811 8.21591C161.652 8.80682 162.213 9.60985 162.493 10.625H162.675C163.031 9.625 163.675 8.82576 164.607 8.22727C165.546 7.62121 166.656 7.31818 167.936 7.31818C169.565 7.31818 170.887 7.83712 171.902 8.875C172.925 9.9053 173.436 11.3674 173.436 13.2614V25H168.607V14.2159C168.607 13.2462 168.349 12.5189 167.834 12.0341C167.319 11.5492 166.675 11.3068 165.902 11.3068C165.023 11.3068 164.338 11.5871 163.845 12.1477C163.353 12.7008 163.107 13.4318 163.107 14.3409V25H158.413V14.1136C158.413 13.2576 158.167 12.5758 157.675 12.0682C157.19 11.5606 156.55 11.3068 155.754 11.3068C155.216 11.3068 154.732 11.4432 154.3 11.7159C153.875 11.9811 153.538 12.3561 153.288 12.8409C153.038 13.3182 152.913 13.8788 152.913 14.5227V25H148.072ZM182.237 25.3295C181.124 25.3295 180.131 25.1364 179.26 24.75C178.389 24.3561 177.699 23.7765 177.192 23.0114C176.692 22.2386 176.442 21.2765 176.442 20.125C176.442 19.1553 176.62 18.3409 176.976 17.6818C177.332 17.0227 177.817 16.4924 178.43 16.0909C179.044 15.6894 179.741 15.3864 180.521 15.1818C181.309 14.9773 182.135 14.8333 182.999 14.75C184.014 14.6439 184.832 14.5455 185.453 14.4545C186.074 14.3561 186.525 14.2121 186.805 14.0227C187.086 13.8333 187.226 13.553 187.226 13.1818V13.1136C187.226 12.3939 186.999 11.8371 186.544 11.4432C186.097 11.0492 185.461 10.8523 184.635 10.8523C183.764 10.8523 183.071 11.0455 182.555 11.4318C182.04 11.8106 181.699 12.2879 181.533 12.8636L177.055 12.5C177.283 11.4394 177.73 10.5227 178.396 9.75C179.063 8.9697 179.923 8.37121 180.976 7.95454C182.036 7.5303 183.264 7.31818 184.658 7.31818C185.627 7.31818 186.555 7.43182 187.442 7.65909C188.336 7.88636 189.127 8.23864 189.817 8.71591C190.514 9.19318 191.063 9.80682 191.464 10.5568C191.866 11.2992 192.067 12.1894 192.067 13.2273V25H187.476V22.5795H187.339C187.059 23.125 186.684 23.6061 186.214 24.0227C185.745 24.4318 185.18 24.7538 184.521 24.9886C183.862 25.2159 183.101 25.3295 182.237 25.3295ZM183.624 21.9886C184.336 21.9886 184.964 21.8485 185.51 21.5682C186.055 21.2803 186.483 20.8939 186.794 20.4091C187.105 19.9242 187.26 19.375 187.26 18.7614V16.9091C187.108 17.0076 186.9 17.0985 186.635 17.1818C186.377 17.2576 186.086 17.3295 185.76 17.3977C185.434 17.4583 185.108 17.5152 184.783 17.5682C184.457 17.6136 184.161 17.6553 183.896 17.6932C183.328 17.7765 182.832 17.9091 182.408 18.0909C181.983 18.2727 181.654 18.5189 181.419 18.8295C181.184 19.1326 181.067 19.5114 181.067 19.9659C181.067 20.625 181.305 21.1288 181.783 21.4773C182.268 21.8182 182.881 21.9886 183.624 21.9886ZM195.822 25V7.54545H200.663V25H195.822ZM198.254 5.29545C197.535 5.29545 196.917 5.05682 196.402 4.57954C195.894 4.0947 195.641 3.51515 195.641 2.84091C195.641 2.17424 195.894 1.60227 196.402 1.125C196.917 0.640151 197.535 0.397726 198.254 0.397726C198.974 0.397726 199.588 0.640151 200.095 1.125C200.61 1.60227 200.868 2.17424 200.868 2.84091C200.868 3.51515 200.61 4.0947 200.095 4.57954C199.588 5.05682 198.974 5.29545 198.254 5.29545ZM219.064 12.5227L214.632 12.7955C214.556 12.4167 214.393 12.0758 214.143 11.7727C213.893 11.4621 213.564 11.2159 213.155 11.0341C212.753 10.8447 212.272 10.75 211.712 10.75C210.962 10.75 210.329 10.9091 209.814 11.2273C209.299 11.5379 209.041 11.9545 209.041 12.4773C209.041 12.8939 209.208 13.2462 209.541 13.5341C209.875 13.822 210.446 14.053 211.257 14.2273L214.416 14.8636C216.113 15.2121 217.378 15.7727 218.212 16.5455C219.045 17.3182 219.462 18.3333 219.462 19.5909C219.462 20.7348 219.125 21.7386 218.45 22.6023C217.784 23.4659 216.867 24.1402 215.7 24.625C214.541 25.1023 213.204 25.3409 211.689 25.3409C209.378 25.3409 207.537 24.8598 206.166 23.8977C204.803 22.928 204.003 21.6098 203.768 19.9432L208.53 19.6932C208.674 20.3977 209.022 20.9356 209.575 21.3068C210.128 21.6705 210.837 21.8523 211.7 21.8523C212.549 21.8523 213.231 21.6894 213.746 21.3636C214.268 21.0303 214.534 20.6023 214.541 20.0795C214.534 19.6402 214.348 19.2803 213.984 19C213.621 18.7121 213.06 18.4924 212.303 18.3409L209.28 17.7386C207.575 17.3977 206.306 16.8068 205.473 15.9659C204.647 15.125 204.234 14.053 204.234 12.75C204.234 11.6288 204.537 10.6629 205.143 9.85227C205.757 9.04167 206.617 8.41667 207.723 7.97727C208.837 7.53788 210.14 7.31818 211.632 7.31818C213.837 7.31818 215.571 7.78409 216.837 8.71591C218.109 9.64773 218.852 10.9167 219.064 12.5227ZM244.439 12.5227L240.007 12.7955C239.931 12.4167 239.768 12.0758 239.518 11.7727C239.268 11.4621 238.939 11.2159 238.53 11.0341C238.128 10.8447 237.647 10.75 237.087 10.75C236.337 10.75 235.704 10.9091 235.189 11.2273C234.674 11.5379 234.416 11.9545 234.416 12.4773C234.416 12.8939 234.583 13.2462 234.916 13.5341C235.25 13.822 235.821 14.053 236.632 14.2273L239.791 14.8636C241.488 15.2121 242.753 15.7727 243.587 16.5455C244.42 17.3182 244.837 18.3333 244.837 19.5909C244.837 20.7348 244.5 21.7386 243.825 22.6023C243.159 23.4659 242.242 24.1402 241.075 24.625C239.916 25.1023 238.579 25.3409 237.064 25.3409C234.753 25.3409 232.912 24.8598 231.541 23.8977C230.178 22.928 229.378 21.6098 229.143 19.9432L233.905 19.6932C234.049 20.3977 234.397 20.9356 234.95 21.3068C235.503 21.6705 236.212 21.8523 237.075 21.8523C237.924 21.8523 238.606 21.6894 239.121 21.3636C239.643 21.0303 239.909 20.6023 239.916 20.0795C239.909 19.6402 239.723 19.2803 239.359 19C238.996 18.7121 238.435 18.4924 237.678 18.3409L234.655 17.7386C232.95 17.3977 231.681 16.8068 230.848 15.9659C230.022 15.125 229.609 14.053 229.609 12.75C229.609 11.6288 229.912 10.6629 230.518 9.85227C231.132 9.04167 231.992 8.41667 233.098 7.97727C234.212 7.53788 235.515 7.31818 237.007 7.31818C239.212 7.31818 240.946 7.78409 242.212 8.71591C243.484 9.64773 244.227 10.9167 244.439 12.5227ZM255.771 25.3409C254.006 25.3409 252.48 24.9659 251.192 24.2159C249.911 23.4583 248.923 22.4053 248.226 21.0568C247.529 19.7008 247.18 18.1288 247.18 16.3409C247.18 14.5379 247.529 12.9621 248.226 11.6136C248.923 10.2576 249.911 9.20454 251.192 8.45454C252.48 7.69697 254.006 7.31818 255.771 7.31818C257.536 7.31818 259.059 7.69697 260.339 8.45454C261.627 9.20454 262.62 10.2576 263.317 11.6136C264.014 12.9621 264.362 14.5379 264.362 16.3409C264.362 18.1288 264.014 19.7008 263.317 21.0568C262.62 22.4053 261.627 23.4583 260.339 24.2159C259.059 24.9659 257.536 25.3409 255.771 25.3409ZM255.794 21.5909C256.597 21.5909 257.268 21.3636 257.805 20.9091C258.343 20.447 258.749 19.8182 259.021 19.0227C259.302 18.2273 259.442 17.322 259.442 16.3068C259.442 15.2917 259.302 14.3864 259.021 13.5909C258.749 12.7955 258.343 12.1667 257.805 11.7045C257.268 11.2424 256.597 11.0114 255.794 11.0114C254.983 11.0114 254.302 11.2424 253.749 11.7045C253.203 12.1667 252.79 12.7955 252.51 13.5909C252.237 14.3864 252.101 15.2917 252.101 16.3068C252.101 17.322 252.237 18.2273 252.51 19.0227C252.79 19.8182 253.203 20.447 253.749 20.9091C254.302 21.3636 254.983 21.5909 255.794 21.5909ZM267.601 25V1.72727H272.442V10.4773H272.589C272.802 10.0076 273.108 9.5303 273.51 9.04545C273.919 8.55303 274.449 8.14394 275.101 7.81818C275.76 7.48485 276.578 7.31818 277.555 7.31818C278.828 7.31818 280.002 7.65152 281.078 8.31818C282.154 8.97727 283.014 9.97348 283.658 11.3068C284.302 12.6326 284.624 14.2955 284.624 16.2955C284.624 18.2424 284.309 19.8864 283.68 21.2273C283.059 22.5606 282.211 23.572 281.135 24.2614C280.067 24.9432 278.87 25.2841 277.544 25.2841C276.605 25.2841 275.805 25.1288 275.146 24.8182C274.495 24.5076 273.961 24.1174 273.544 23.6477C273.127 23.1705 272.809 22.6894 272.589 22.2045H272.374V25H267.601ZM272.339 16.2727C272.339 17.3106 272.483 18.2159 272.771 18.9886C273.059 19.7614 273.476 20.3636 274.021 20.7955C274.567 21.2197 275.23 21.4318 276.01 21.4318C276.798 21.4318 277.464 21.2159 278.01 20.7841C278.555 20.3447 278.968 19.7386 279.249 18.9659C279.536 18.1856 279.68 17.2879 279.68 16.2727C279.68 15.2652 279.54 14.3788 279.26 13.6136C278.98 12.8485 278.567 12.25 278.021 11.8182C277.476 11.3864 276.805 11.1705 276.01 11.1705C275.222 11.1705 274.555 11.3788 274.01 11.7955C273.472 12.2121 273.059 12.803 272.771 13.5682C272.483 14.3333 272.339 15.2348 272.339 16.2727ZM287.854 25V7.54545H292.547V10.5909H292.729C293.047 9.50758 293.581 8.68939 294.331 8.13636C295.081 7.57576 295.945 7.29545 296.922 7.29545C297.164 7.29545 297.426 7.31061 297.706 7.34091C297.986 7.37121 298.232 7.41288 298.445 7.46591V11.7614C298.217 11.6932 297.903 11.6326 297.501 11.5795C297.1 11.5265 296.732 11.5 296.399 11.5C295.687 11.5 295.051 11.6553 294.49 11.9659C293.937 12.2689 293.498 12.6932 293.172 13.2386C292.854 13.7841 292.695 14.4129 292.695 15.125V25H287.854ZM308.089 25.3409C306.294 25.3409 304.749 24.9773 303.453 24.25C302.165 23.5152 301.173 22.4773 300.476 21.1364C299.779 19.7879 299.43 18.1932 299.43 16.3523C299.43 14.5568 299.779 12.9811 300.476 11.625C301.173 10.2689 302.154 9.21212 303.419 8.45454C304.692 7.69697 306.184 7.31818 307.896 7.31818C309.048 7.31818 310.12 7.50379 311.112 7.875C312.112 8.23864 312.983 8.78788 313.726 9.52273C314.476 10.2576 315.059 11.1818 315.476 12.2955C315.893 13.4015 316.101 14.697 316.101 16.1818V17.5114H301.362V14.5114H311.544C311.544 13.8144 311.393 13.197 311.089 12.6591C310.786 12.1212 310.366 11.7008 309.828 11.3977C309.298 11.0871 308.68 10.9318 307.976 10.9318C307.241 10.9318 306.589 11.1023 306.021 11.4432C305.461 11.7765 305.021 12.2273 304.703 12.7955C304.385 13.3561 304.222 13.9811 304.214 14.6705V17.5227C304.214 18.3864 304.374 19.1326 304.692 19.7614C305.018 20.3902 305.476 20.875 306.067 21.2159C306.658 21.5568 307.358 21.7273 308.169 21.7273C308.707 21.7273 309.199 21.6515 309.646 21.5C310.093 21.3485 310.476 21.1212 310.794 20.8182C311.112 20.5152 311.355 20.1439 311.521 19.7045L315.999 20C315.771 21.0758 315.305 22.0152 314.601 22.8182C313.904 23.6136 313.002 24.2348 311.896 24.6818C310.798 25.1212 309.529 25.3409 308.089 25.3409ZM331.507 14.9091V25H326.666V7.54545H331.28V10.625H331.484C331.871 9.60985 332.518 8.80682 333.428 8.21591C334.337 7.61742 335.439 7.31818 336.734 7.31818C337.946 7.31818 339.003 7.58333 339.905 8.11364C340.806 8.64394 341.507 9.40151 342.007 10.3864C342.507 11.3636 342.757 12.5303 342.757 13.8864V25H337.916V14.75C337.924 13.6818 337.651 12.8485 337.098 12.25C336.545 11.6439 335.784 11.3409 334.814 11.3409C334.162 11.3409 333.587 11.4811 333.087 11.7614C332.594 12.0417 332.208 12.4508 331.928 12.9886C331.655 13.5189 331.515 14.1591 331.507 14.9091ZM354.459 25.3409C352.694 25.3409 351.167 24.9659 349.879 24.2159C348.599 23.4583 347.61 22.4053 346.913 21.0568C346.216 19.7008 345.868 18.1288 345.868 16.3409C345.868 14.5379 346.216 12.9621 346.913 11.6136C347.61 10.2576 348.599 9.20454 349.879 8.45454C351.167 7.69697 352.694 7.31818 354.459 7.31818C356.224 7.31818 357.747 7.69697 359.027 8.45454C360.315 9.20454 361.307 10.2576 362.004 11.6136C362.701 12.9621 363.05 14.5379 363.05 16.3409C363.05 18.1288 362.701 19.7008 362.004 21.0568C361.307 22.4053 360.315 23.4583 359.027 24.2159C357.747 24.9659 356.224 25.3409 354.459 25.3409ZM354.482 21.5909C355.285 21.5909 355.955 21.3636 356.493 20.9091C357.031 20.447 357.436 19.8182 357.709 19.0227C357.989 18.2273 358.129 17.322 358.129 16.3068C358.129 15.2917 357.989 14.3864 357.709 13.5909C357.436 12.7955 357.031 12.1667 356.493 11.7045C355.955 11.2424 355.285 11.0114 354.482 11.0114C353.671 11.0114 352.989 11.2424 352.436 11.7045C351.891 12.1667 351.478 12.7955 351.197 13.5909C350.925 14.3864 350.788 15.2917 350.788 16.3068C350.788 17.322 350.925 18.2273 351.197 19.0227C351.478 19.8182 351.891 20.447 352.436 20.9091C352.989 21.3636 353.671 21.5909 354.482 21.5909ZM380.72 12.5227L376.288 12.7955C376.213 12.4167 376.05 12.0758 375.8 11.7727C375.55 11.4621 375.22 11.2159 374.811 11.0341C374.41 10.8447 373.929 10.75 373.368 10.75C372.618 10.75 371.985 10.9091 371.47 11.2273C370.955 11.5379 370.697 11.9545 370.697 12.4773C370.697 12.8939 370.864 13.2462 371.197 13.5341C371.531 13.822 372.103 14.053 372.913 14.2273L376.072 14.8636C377.769 15.2121 379.035 15.7727 379.868 16.5455C380.701 17.3182 381.118 18.3333 381.118 19.5909C381.118 20.7348 380.781 21.7386 380.107 22.6023C379.44 23.4659 378.523 24.1402 377.357 24.625C376.197 25.1023 374.86 25.3409 373.345 25.3409C371.035 25.3409 369.194 24.8598 367.822 23.8977C366.459 22.928 365.66 21.6098 365.425 19.9432L370.186 19.6932C370.33 20.3977 370.679 20.9356 371.232 21.3068C371.785 21.6705 372.493 21.8523 373.357 21.8523C374.205 21.8523 374.887 21.6894 375.402 21.3636C375.925 21.0303 376.19 20.6023 376.197 20.0795C376.19 19.6402 376.004 19.2803 375.641 19C375.277 18.7121 374.716 18.4924 373.959 18.3409L370.936 17.7386C369.232 17.3977 367.963 16.8068 367.129 15.9659C366.304 15.125 365.891 14.053 365.891 12.75C365.891 11.6288 366.194 10.6629 366.8 9.85227C367.413 9.04167 368.273 8.41667 369.379 7.97727C370.493 7.53788 371.796 7.31818 373.288 7.31818C375.493 7.31818 377.228 7.78409 378.493 8.71591C379.766 9.64773 380.508 10.9167 380.72 12.5227ZM398.689 12.5227L394.257 12.7955C394.181 12.4167 394.018 12.0758 393.768 11.7727C393.518 11.4621 393.189 11.2159 392.78 11.0341C392.378 10.8447 391.897 10.75 391.337 10.75C390.587 10.75 389.954 10.9091 389.439 11.2273C388.924 11.5379 388.666 11.9545 388.666 12.4773C388.666 12.8939 388.833 13.2462 389.166 13.5341C389.5 13.822 390.071 14.053 390.882 14.2273L394.041 14.8636C395.738 15.2121 397.003 15.7727 397.837 16.5455C398.67 17.3182 399.087 18.3333 399.087 19.5909C399.087 20.7348 398.75 21.7386 398.075 22.6023C397.409 23.4659 396.492 24.1402 395.325 24.625C394.166 25.1023 392.829 25.3409 391.314 25.3409C389.003 25.3409 387.162 24.8598 385.791 23.8977C384.428 22.928 383.628 21.6098 383.393 19.9432L388.155 19.6932C388.299 20.3977 388.647 20.9356 389.2 21.3068C389.753 21.6705 390.462 21.8523 391.325 21.8523C392.174 21.8523 392.856 21.6894 393.371 21.3636C393.893 21.0303 394.159 20.6023 394.166 20.0795C394.159 19.6402 393.973 19.2803 393.609 19C393.246 18.7121 392.685 18.4924 391.928 18.3409L388.905 17.7386C387.2 17.3977 385.931 16.8068 385.098 15.9659C384.272 15.125 383.859 14.053 383.859 12.75C383.859 11.6288 384.162 10.6629 384.768 9.85227C385.382 9.04167 386.242 8.41667 387.348 7.97727C388.462 7.53788 389.765 7.31818 391.257 7.31818C393.462 7.31818 395.196 7.78409 396.462 8.71591C397.734 9.64773 398.477 10.9167 398.689 12.5227ZM410.021 25.3409C408.256 25.3409 406.73 24.9659 405.442 24.2159C404.161 23.4583 403.173 22.4053 402.476 21.0568C401.779 19.7008 401.43 18.1288 401.43 16.3409C401.43 14.5379 401.779 12.9621 402.476 11.6136C403.173 10.2576 404.161 9.20454 405.442 8.45454C406.73 7.69697 408.256 7.31818 410.021 7.31818C411.786 7.31818 413.309 7.69697 414.589 8.45454C415.877 9.20454 416.87 10.2576 417.567 11.6136C418.264 12.9621 418.612 14.5379 418.612 16.3409C418.612 18.1288 418.264 19.7008 417.567 21.0568C416.87 22.4053 415.877 23.4583 414.589 24.2159C413.309 24.9659 411.786 25.3409 410.021 25.3409ZM410.044 21.5909C410.847 21.5909 411.518 21.3636 412.055 20.9091C412.593 20.447 412.999 19.8182 413.271 19.0227C413.552 18.2273 413.692 17.322 413.692 16.3068C413.692 15.2917 413.552 14.3864 413.271 13.5909C412.999 12.7955 412.593 12.1667 412.055 11.7045C411.518 11.2424 410.847 11.0114 410.044 11.0114C409.233 11.0114 408.552 11.2424 407.999 11.7045C407.453 12.1667 407.04 12.7955 406.76 13.5909C406.487 14.3864 406.351 15.2917 406.351 16.3068C406.351 17.322 406.487 18.2273 406.76 19.0227C407.04 19.8182 407.453 20.447 407.999 20.9091C408.552 21.3636 409.233 21.5909 410.044 21.5909ZM436.283 12.5227L431.851 12.7955C431.775 12.4167 431.612 12.0758 431.362 11.7727C431.112 11.4621 430.783 11.2159 430.374 11.0341C429.972 10.8447 429.491 10.75 428.93 10.75C428.18 10.75 427.548 10.9091 427.033 11.2273C426.518 11.5379 426.26 11.9545 426.26 12.4773C426.26 12.8939 426.427 13.2462 426.76 13.5341C427.093 13.822 427.665 14.053 428.476 14.2273L431.635 14.8636C433.332 15.2121 434.597 15.7727 435.43 16.5455C436.264 17.3182 436.68 18.3333 436.68 19.5909C436.68 20.7348 436.343 21.7386 435.669 22.6023C435.002 23.4659 434.086 24.1402 432.919 24.625C431.76 25.1023 430.423 25.3409 428.908 25.3409C426.597 25.3409 424.756 24.8598 423.385 23.8977C422.021 22.928 421.222 21.6098 420.987 19.9432L425.749 19.6932C425.893 20.3977 426.241 20.9356 426.794 21.3068C427.347 21.6705 428.055 21.8523 428.919 21.8523C429.768 21.8523 430.449 21.6894 430.964 21.3636C431.487 21.0303 431.752 20.6023 431.76 20.0795C431.752 19.6402 431.567 19.2803 431.203 19C430.839 18.7121 430.279 18.4924 429.521 18.3409L426.499 17.7386C424.794 17.3977 423.525 16.8068 422.692 15.9659C421.866 15.125 421.453 14.053 421.453 12.75C421.453 11.6288 421.756 10.6629 422.362 9.85227C422.976 9.04167 423.836 8.41667 424.942 7.97727C426.055 7.53788 427.358 7.31818 428.851 7.31818C431.055 7.31818 432.79 7.78409 434.055 8.71591C435.328 9.64773 436.071 10.9167 436.283 12.5227ZM461.658 12.5227L457.226 12.7955C457.15 12.4167 456.987 12.0758 456.737 11.7727C456.487 11.4621 456.158 11.2159 455.749 11.0341C455.347 10.8447 454.866 10.75 454.305 10.75C453.555 10.75 452.923 10.9091 452.408 11.2273C451.893 11.5379 451.635 11.9545 451.635 12.4773C451.635 12.8939 451.802 13.2462 452.135 13.5341C452.468 13.822 453.04 14.053 453.851 14.2273L457.01 14.8636C458.707 15.2121 459.972 15.7727 460.805 16.5455C461.639 17.3182 462.055 18.3333 462.055 19.5909C462.055 20.7348 461.718 21.7386 461.044 22.6023C460.377 23.4659 459.461 24.1402 458.294 24.625C457.135 25.1023 455.798 25.3409 454.283 25.3409C451.972 25.3409 450.131 24.8598 448.76 23.8977C447.396 22.928 446.597 21.6098 446.362 19.9432L451.124 19.6932C451.268 20.3977 451.616 20.9356 452.169 21.3068C452.722 21.6705 453.43 21.8523 454.294 21.8523C455.143 21.8523 455.824 21.6894 456.339 21.3636C456.862 21.0303 457.127 20.6023 457.135 20.0795C457.127 19.6402 456.942 19.2803 456.578 19C456.214 18.7121 455.654 18.4924 454.896 18.3409L451.874 17.7386C450.169 17.3977 448.9 16.8068 448.067 15.9659C447.241 15.125 446.828 14.053 446.828 12.75C446.828 11.6288 447.131 10.6629 447.737 9.85227C448.351 9.04167 449.211 8.41667 450.317 7.97727C451.43 7.53788 452.733 7.31818 454.226 7.31818C456.43 7.31818 458.165 7.78409 459.43 8.71591C460.703 9.64773 461.446 10.9167 461.658 12.5227ZM473.058 25.3409C471.263 25.3409 469.717 24.9773 468.422 24.25C467.134 23.5152 466.142 22.4773 465.445 21.1364C464.748 19.7879 464.399 18.1932 464.399 16.3523C464.399 14.5568 464.748 12.9811 465.445 11.625C466.142 10.2689 467.123 9.21212 468.388 8.45454C469.661 7.69697 471.153 7.31818 472.865 7.31818C474.017 7.31818 475.089 7.50379 476.081 7.875C477.081 8.23864 477.952 8.78788 478.695 9.52273C479.445 10.2576 480.028 11.1818 480.445 12.2955C480.861 13.4015 481.07 14.697 481.07 16.1818V17.5114H466.331V14.5114H476.513C476.513 13.8144 476.361 13.197 476.058 12.6591C475.755 12.1212 475.335 11.7008 474.797 11.3977C474.267 11.0871 473.649 10.9318 472.945 10.9318C472.21 10.9318 471.558 11.1023 470.99 11.4432C470.429 11.7765 469.99 12.2273 469.672 12.7955C469.354 13.3561 469.191 13.9811 469.183 14.6705V17.5227C469.183 18.3864 469.342 19.1326 469.661 19.7614C469.986 20.3902 470.445 20.875 471.036 21.2159C471.626 21.5568 472.327 21.7273 473.138 21.7273C473.676 21.7273 474.168 21.6515 474.615 21.5C475.062 21.3485 475.445 21.1212 475.763 20.8182C476.081 20.5152 476.323 20.1439 476.49 19.7045L480.967 20C480.74 21.0758 480.274 22.0152 479.57 22.8182C478.873 23.6136 477.971 24.2348 476.865 24.6818C475.767 25.1212 474.498 25.3409 473.058 25.3409ZM484.229 25V7.54545H488.922V10.5909H489.104C489.422 9.50758 489.956 8.68939 490.706 8.13636C491.456 7.57576 492.32 7.29545 493.297 7.29545C493.539 7.29545 493.801 7.31061 494.081 7.34091C494.361 7.37121 494.607 7.41288 494.82 7.46591V11.7614C494.592 11.6932 494.278 11.6326 493.876 11.5795C493.475 11.5265 493.107 11.5 492.774 11.5C492.062 11.5 491.426 11.6553 490.865 11.9659C490.312 12.2689 489.873 12.6932 489.547 13.2386C489.229 13.7841 489.07 14.4129 489.07 15.125V25H484.229ZM514.126 7.54545L508.024 25H502.57L496.467 7.54545H501.581L505.206 20.0341H505.388L509.001 7.54545H514.126ZM516.604 25V7.54545H521.445V25H516.604ZM519.036 5.29545C518.316 5.29545 517.698 5.05682 517.183 4.57954C516.676 4.0947 516.422 3.51515 516.422 2.84091C516.422 2.17424 516.676 1.60227 517.183 1.125C517.698 0.640151 518.316 0.397726 519.036 0.397726C519.755 0.397726 520.369 0.640151 520.876 1.125C521.392 1.60227 521.649 2.17424 521.649 2.84091C521.649 3.51515 521.392 4.0947 520.876 4.57954C520.369 5.05682 519.755 5.29545 519.036 5.29545ZM533.209 25.3409C531.421 25.3409 529.883 24.9621 528.595 24.2045C527.315 23.4394 526.33 22.3788 525.641 21.0227C524.959 19.6667 524.618 18.1061 524.618 16.3409C524.618 14.553 524.963 12.9848 525.652 11.6364C526.349 10.2803 527.338 9.22348 528.618 8.46591C529.898 7.70076 531.421 7.31818 533.186 7.31818C534.709 7.31818 536.042 7.5947 537.186 8.14773C538.33 8.70076 539.235 9.47727 539.902 10.4773C540.569 11.4773 540.936 12.6515 541.004 14H536.436C536.307 13.1288 535.966 12.428 535.413 11.8977C534.868 11.3598 534.152 11.0909 533.266 11.0909C532.516 11.0909 531.86 11.2955 531.3 11.7045C530.747 12.1061 530.315 12.6932 530.004 13.4659C529.694 14.2386 529.538 15.1742 529.538 16.2727C529.538 17.3864 529.69 18.3333 529.993 19.1136C530.304 19.8939 530.739 20.4886 531.3 20.8977C531.86 21.3068 532.516 21.5114 533.266 21.5114C533.819 21.5114 534.315 21.3977 534.754 21.1705C535.201 20.9432 535.569 20.6136 535.857 20.1818C536.152 19.7424 536.345 19.2159 536.436 18.6023H541.004C540.929 19.9356 540.565 21.1098 539.913 22.125C539.269 23.1326 538.379 23.9205 537.243 24.4886C536.107 25.0568 534.762 25.3409 533.209 25.3409ZM532.072 24.9091H534.3L534.118 25.8977C534.898 26.0189 535.535 26.3106 536.027 26.7727C536.527 27.2348 536.781 27.8636 536.788 28.6591C536.796 29.7879 536.273 30.6856 535.22 31.3523C534.167 32.0265 532.69 32.3636 530.788 32.3636L530.743 30.2045C531.697 30.2045 532.444 30.0871 532.982 29.8523C533.527 29.625 533.811 29.2689 533.834 28.7841C533.849 28.322 533.671 27.9697 533.3 27.7273C532.929 27.4848 532.349 27.3144 531.561 27.2159L532.072 24.9091ZM551.99 25.3409C550.225 25.3409 548.698 24.9659 547.411 24.2159C546.13 23.4583 545.142 22.4053 544.445 21.0568C543.748 19.7008 543.399 18.1288 543.399 16.3409C543.399 14.5379 543.748 12.9621 544.445 11.6136C545.142 10.2576 546.13 9.20454 547.411 8.45454C548.698 7.69697 550.225 7.31818 551.99 7.31818C553.755 7.31818 555.278 7.69697 556.558 8.45454C557.846 9.20454 558.839 10.2576 559.536 11.6136C560.232 12.9621 560.581 14.5379 560.581 16.3409C560.581 18.1288 560.232 19.7008 559.536 21.0568C558.839 22.4053 557.846 23.4583 556.558 24.2159C555.278 24.9659 553.755 25.3409 551.99 25.3409ZM552.013 21.5909C552.816 21.5909 553.486 21.3636 554.024 20.9091C554.562 20.447 554.967 19.8182 555.24 19.0227C555.52 18.2273 555.661 17.322 555.661 16.3068C555.661 15.2917 555.52 14.3864 555.24 13.5909C554.967 12.7955 554.562 12.1667 554.024 11.7045C553.486 11.2424 552.816 11.0114 552.013 11.0114C551.202 11.0114 550.52 11.2424 549.967 11.7045C549.422 12.1667 549.009 12.7955 548.729 13.5909C548.456 14.3864 548.32 15.2917 548.32 16.3068C548.32 17.322 548.456 18.2273 548.729 19.0227C549.009 19.8182 549.422 20.447 549.967 20.9091C550.52 21.3636 551.202 21.5909 552.013 21.5909ZM578.251 12.5227L573.82 12.7955C573.744 12.4167 573.581 12.0758 573.331 11.7727C573.081 11.4621 572.751 11.2159 572.342 11.0341C571.941 10.8447 571.46 10.75 570.899 10.75C570.149 10.75 569.517 10.9091 569.001 11.2273C568.486 11.5379 568.229 11.9545 568.229 12.4773C568.229 12.8939 568.395 13.2462 568.729 13.5341C569.062 13.822 569.634 14.053 570.445 14.2273L573.604 14.8636C575.301 15.2121 576.566 15.7727 577.399 16.5455C578.232 17.3182 578.649 18.3333 578.649 19.5909C578.649 20.7348 578.312 21.7386 577.638 22.6023C576.971 23.4659 576.054 24.1402 574.888 24.625C573.729 25.1023 572.392 25.3409 570.876 25.3409C568.566 25.3409 566.725 24.8598 565.354 23.8977C563.99 22.928 563.191 21.6098 562.956 19.9432L567.717 19.6932C567.861 20.3977 568.21 20.9356 568.763 21.3068C569.316 21.6705 570.024 21.8523 570.888 21.8523C571.736 21.8523 572.418 21.6894 572.933 21.3636C573.456 21.0303 573.721 20.6023 573.729 20.0795C573.721 19.6402 573.536 19.2803 573.172 19C572.808 18.7121 572.248 18.4924 571.49 18.3409L568.467 17.7386C566.763 17.3977 565.494 16.8068 564.661 15.9659C563.835 15.125 563.422 14.053 563.422 12.75C563.422 11.6288 563.725 10.6629 564.331 9.85227C564.945 9.04167 565.804 8.41667 566.911 7.97727C568.024 7.53788 569.327 7.31818 570.82 7.31818C573.024 7.31818 574.759 7.78409 576.024 8.71591C577.297 9.64773 578.039 10.9167 578.251 12.5227ZM584.527 25.2955C583.777 25.2955 583.133 25.0303 582.595 24.5C582.065 23.9621 581.8 23.3182 581.8 22.5682C581.8 21.8258 582.065 21.1894 582.595 20.6591C583.133 20.1288 583.777 19.8636 584.527 19.8636C585.254 19.8636 585.891 20.1288 586.436 20.6591C586.982 21.1894 587.254 21.8258 587.254 22.5682C587.254 23.0682 587.125 23.5265 586.868 23.9432C586.618 24.3523 586.288 24.6818 585.879 24.9318C585.47 25.1742 585.019 25.2955 584.527 25.2955ZM584.527 13.0682C583.777 13.0682 583.133 12.803 582.595 12.2727C582.065 11.7424 581.8 11.0985 581.8 10.3409C581.8 9.59848 582.065 8.96591 582.595 8.44318C583.133 7.91288 583.777 7.64773 584.527 7.64773C585.254 7.64773 585.891 7.91288 586.436 8.44318C586.982 8.96591 587.254 9.59848 587.254 10.3409C587.254 10.8485 587.125 11.3106 586.868 11.7273C586.618 12.1364 586.288 12.4621 585.879 12.7045C585.47 12.947 585.019 13.0682 584.527 13.0682Z" fill="white"/>
</svg>
